<?xml version="1.0" encoding="UTF-8"?>
<svg xmlns="http://www.w3.org/2000/svg" xmlns:xlink="http://www.w3.org/1999/xlink" width="269.2pt" height="235.1pt" viewBox="0 0 269.2 235.1" version="1.1">
<defs>
<clipPath id="clip1">
  <path d="M 0 192 L 269.199219 192 L 269.199219 235.101563 L 0 235.101563 Z M 0 192 "/>
</clipPath>
</defs>
<g id="surface1">
<path style="fill-rule:evenodd;fill:rgb(94.139099%,48.631287%,0%);fill-opacity:1;stroke-width:2.16;stroke-linecap:butt;stroke-linejoin:miter;stroke:rgb(94.139099%,48.631287%,0%);stroke-opacity:1;stroke-miterlimit:4;" d="M 1021.367188 1077.015625 L 1018.242188 1077.015625 L 1018.242188 1073.890625 L 993.320313 1073.890625 L 993.320313 1080.140625 L 990.195313 1080.140625 L 990.195313 1083.226563 L 987.070313 1083.226563 L 987.070313 1086.351563 L 983.945313 1086.351563 L 983.945313 1105.101563 L 980.820313 1105.101563 L 980.820313 1083.226563 L 983.945313 1083.226563 L 983.945313 1077.015625 L 987.070313 1077.015625 L 987.070313 1073.890625 L 990.195313 1073.890625 L 990.195313 1070.765625 L 1021.367188 1070.765625 Z M 1021.367188 1077.015625 " transform="matrix(0.1,0,0,-0.1,0,235.1)"/>
<path style="fill-rule:evenodd;fill:rgb(94.139099%,48.631287%,0%);fill-opacity:1;stroke-width:2.16;stroke-linecap:butt;stroke-linejoin:miter;stroke:rgb(94.139099%,48.631287%,0%);stroke-opacity:1;stroke-miterlimit:4;" d="M 1610.585938 1066.234375 L 1613.710938 1066.234375 L 1613.710938 1063.148438 L 1638.671875 1063.148438 L 1638.671875 1069.359375 L 1641.796875 1069.359375 L 1641.796875 1072.484375 L 1644.921875 1072.484375 L 1644.921875 1075.609375 L 1648.007813 1075.609375 L 1648.007813 1094.359375 L 1651.132813 1094.359375 L 1651.132813 1072.484375 L 1648.007813 1072.484375 L 1648.007813 1066.234375 L 1644.921875 1066.234375 L 1644.921875 1063.148438 L 1641.796875 1063.148438 L 1641.796875 1060.023438 L 1610.585938 1060.023438 Z M 1610.585938 1066.234375 " transform="matrix(0.1,0,0,-0.1,0,235.1)"/>
<path style="fill-rule:evenodd;fill:rgb(94.139099%,48.631287%,0%);fill-opacity:1;stroke-width:2.16;stroke-linecap:butt;stroke-linejoin:miter;stroke:rgb(94.139099%,48.631287%,0%);stroke-opacity:1;stroke-miterlimit:4;" d="M 1252.226563 2134.828125 L 1161.757813 2134.828125 C 1161.757813 2134.828125 1066.367188 1430.492188 1242.890625 1027.09375 L 1398.867188 1027.09375 C 1398.867188 1027.09375 1566.992188 1514.789063 1475.507813 2133.460938 L 1386.914063 2133.539063 C 1386.914063 2133.539063 1466.210938 1455.882813 1320.859375 1089.476563 C 1209.53125 1399.90625 1221.875 1803.65625 1252.226563 2134.828125 Z M 1252.226563 2134.828125 " transform="matrix(0.1,0,0,-0.1,0,235.1)"/>
<path style="fill-rule:evenodd;fill:rgb(94.139099%,48.631287%,0%);fill-opacity:1;stroke-width:2.16;stroke-linecap:butt;stroke-linejoin:miter;stroke:rgb(94.139099%,48.631287%,0%);stroke-opacity:1;stroke-miterlimit:4;" d="M 977.695313 1975.6875 C 977.695313 1975.6875 1127.109375 2098.109375 1158.28125 2227.992188 C 1185.9375 2343.109375 1108.671875 2351.664063 1015.117188 2272.09375 L 993.28125 2292.757813 L 966.640625 2265.882813 L 986.914063 2247.523438 L 958.984375 2215.960938 L 939.375 2231.546875 L 916.5625 2203.265625 L 935.976563 2187.484375 L 918.4375 2157.796875 L 899.296875 2165.648438 L 881.210938 2136.390625 C 881.210938 2136.390625 900.351563 2127.054688 899.570313 2125.453125 C 898.789063 2123.851563 884.101563 2066.15625 884.101563 2066.15625 L 857.617188 2066.15625 L 852.890625 2038.109375 L 876.328125 2038.109375 C 876.328125 2038.109375 877.890625 2003.03125 874.765625 2003.03125 C 871.640625 2003.03125 851.015625 2001.664063 851.015625 2001.664063 L 851.679688 1965.101563 L 875.546875 1966.3125 L 891.484375 1939.4375 L 871.640625 1922.640625 L 894.960938 1899.28125 L 914.140625 1914.398438 L 940.976563 1887.132813 L 921.5625 1869.476563 L 948.125 1842.914063 L 965.976563 1859.476563 L 999.53125 1828.695313 L 972.1875 1796.390625 L 957.734375 1809.007813 L 937.148438 1788.460938 L 952.265625 1773.578125 L 933.867188 1749.554688 L 917.070313 1764.671875 L 889.453125 1731.976563 L 906.445313 1716.898438 L 892.148438 1694.554688 L 872.070313 1694.28125 L 871.71875 1666.234375 L 891.640625 1666.234375 L 905.9375 1634.398438 L 893.476563 1623.109375 L 912.1875 1598.109375 L 927.773438 1610.609375 L 949.648438 1585.609375 L 935.585938 1570.84375 L 961.875 1543.304688 L 976.171875 1557.5625 L 1015.15625 1516.976563 L 987.070313 1479.554688 L 963.4375 1492.835938 L 949.609375 1464.398438 L 969.140625 1453.851563 L 954.882813 1417.132813 L 920.9375 1417.289063 L 921.09375 1391.117188 L 949.53125 1391.15625 L 950.46875 1349.398438 L 927.773438 1328.1875 L 951.210938 1304.789063 L 972.265625 1325.84375 L 999.0625 1298.148438 L 980.859375 1277.71875 L 1005.898438 1255.492188 L 1023.125 1276.703125 L 1053.164063 1255.21875 L 1030.742188 1220.921875 L 1010.507813 1231.507813 L 996.40625 1206.507813 L 1017.460938 1194.828125 L 1001.757813 1152.757813 C 995.585938 1136.234375 984.140625 1115.648438 983.945313 1098.34375 C 983.59375 1067.015625 1008.59375 1056.15625 1055.703125 1120.6875 L 1160.195313 1265.804688 L 1040.078125 1367.171875 L 1136.835938 1523.226563 L 1005.78125 1679.242188 L 1124.335938 1825.882813 Z M 977.695313 1975.6875 " transform="matrix(0.1,0,0,-0.1,0,235.1)"/>
<path style="fill-rule:evenodd;fill:rgb(94.139099%,48.631287%,0%);fill-opacity:1;stroke-width:2.16;stroke-linecap:butt;stroke-linejoin:miter;stroke:rgb(94.139099%,48.631287%,0%);stroke-opacity:1;stroke-miterlimit:4;" d="M 1654.257813 1964.90625 C 1654.257813 1964.90625 1504.84375 2087.367188 1473.671875 2217.289063 C 1446.054688 2332.367188 1523.28125 2340.882813 1616.835938 2261.351563 L 1638.710938 2282.015625 L 1665.273438 2255.101563 L 1645.078125 2236.78125 L 1673.007813 2205.21875 L 1692.578125 2220.804688 L 1715.390625 2192.523438 L 1696.015625 2176.742188 L 1713.554688 2147.054688 L 1732.695313 2154.90625 L 1750.703125 2125.648438 C 1750.703125 2125.648438 1731.640625 2116.273438 1732.421875 2114.710938 C 1733.203125 2113.109375 1747.851563 2055.414063 1747.851563 2055.414063 L 1774.375 2055.414063 L 1775.195313 2027.328125 L 1752.96875 2027.328125 C 1752.96875 2027.328125 1754.101563 1992.289063 1757.226563 1992.289063 C 1760.3125 1992.289063 1780.9375 1990.882813 1780.9375 1990.882813 L 1780.234375 1954.359375 L 1756.40625 1955.609375 L 1740.46875 1928.695313 L 1760.3125 1911.859375 L 1736.992188 1888.539063 L 1717.8125 1903.65625 L 1691.015625 1876.351563 L 1710.390625 1858.734375 L 1683.828125 1832.171875 L 1665.976563 1848.734375 L 1632.421875 1817.953125 L 1659.765625 1785.648438 L 1674.257813 1798.265625 L 1694.804688 1777.71875 L 1679.726563 1762.835938 L 1698.125 1738.8125 L 1714.882813 1753.890625 L 1742.460938 1721.234375 L 1725.507813 1706.15625 L 1739.804688 1683.773438 L 1762.265625 1683.578125 L 1762.578125 1655.53125 L 1740.3125 1655.492188 L 1726.015625 1623.617188 L 1738.476563 1612.328125 L 1719.765625 1587.367188 L 1704.140625 1599.828125 L 1682.34375 1574.867188 L 1696.367188 1560.101563 L 1670.078125 1532.523438 L 1655.78125 1546.78125 L 1616.835938 1506.234375 L 1644.921875 1468.773438 L 1668.554688 1482.054688 L 1682.34375 1453.65625 L 1662.773438 1443.109375 L 1677.109375 1406.351563 L 1711.015625 1406.507813 L 1710.859375 1380.375 L 1682.421875 1380.414063 L 1681.445313 1338.65625 L 1704.140625 1317.445313 L 1680.78125 1294.046875 L 1659.726563 1315.0625 L 1632.890625 1287.40625 L 1651.132813 1266.9375 L 1626.054688 1244.710938 L 1608.828125 1265.960938 L 1578.789063 1244.4375 L 1601.210938 1210.21875 L 1621.445313 1220.765625 L 1635.546875 1195.765625 L 1614.453125 1184.085938 L 1630.195313 1142.015625 C 1636.367188 1125.492188 1647.851563 1104.90625 1648.007813 1087.5625 C 1648.359375 1056.234375 1623.398438 1045.375 1576.289063 1109.945313 L 1471.757813 1255.023438 L 1591.875 1356.46875 L 1495.15625 1512.484375 L 1626.171875 1668.460938 L 1507.65625 1815.140625 Z M 1654.257813 1964.90625 " transform="matrix(0.1,0,0,-0.1,0,235.1)"/>
<path style=" stroke:none;fill-rule:evenodd;fill:rgb(40.380859%,44.309998%,25.488281%);fill-opacity:1;" d="M 27.554688 183.640625 C 26.019531 183.640625 24.707031 183.484375 23.621094 183.183594 C 22.539063 182.871094 21.628906 182.445313 20.898438 181.910156 C 20.164063 181.371094 19.59375 180.746094 19.171875 180.03125 C 18.761719 179.308594 18.445313 178.542969 18.230469 177.730469 C 18.019531 176.914063 17.882813 176.078125 17.824219 175.214844 C 17.765625 174.347656 17.742188 173.503906 17.742188 172.664063 L 17.742188 158.238281 L 21.042969 158.238281 L 21.042969 172.613281 C 21.042969 174.289063 21.195313 175.652344 21.488281 176.699219 C 21.777344 177.746094 22.195313 178.566406 22.746094 179.152344 C 23.289063 179.734375 23.972656 180.132813 24.78125 180.351563 C 25.585938 180.566406 26.511719 180.667969 27.554688 180.667969 C 28.617188 180.667969 29.546875 180.566406 30.359375 180.351563 C 31.164063 180.132813 31.84375 179.734375 32.394531 179.140625 C 32.941406 178.542969 33.355469 177.726563 33.632813 176.679688 C 33.910156 175.632813 34.042969 174.277344 34.042969 172.613281 L 34.042969 158.238281 L 37.378906 158.238281 L 37.378906 172.664063 C 37.378906 174.398438 37.230469 175.945313 36.933594 177.289063 C 36.636719 178.648438 36.117188 179.792969 35.382813 180.742188 C 34.640625 181.671875 33.640625 182.402344 32.371094 182.898438 C 31.101563 183.394531 29.496094 183.640625 27.554688 183.640625 Z M 62.574219 183.207031 L 59.183594 183.207031 L 46.074219 163.511719 L 46.074219 183.207031 L 42.9375 183.207031 L 42.9375 158.238281 L 46.359375 158.238281 L 59.410156 177.964844 L 59.410156 158.238281 L 62.574219 158.238281 Z M 71.878906 183.207031 L 68.585938 183.207031 L 68.585938 158.238281 L 71.878906 158.238281 Z M 98.113281 158.238281 L 88.371094 183.207031 L 84.96875 183.207031 L 75.242188 158.238281 L 78.796875 158.238281 L 86.667969 179.648438 L 94.574219 158.238281 Z M 119.773438 183.207031 L 101.121094 183.207031 L 101.121094 158.238281 L 119.203125 158.238281 L 119.203125 161.207031 L 104.429688 161.207031 L 104.429688 168.792969 L 118.242188 168.792969 L 118.242188 171.765625 L 104.429688 171.765625 L 104.429688 180.238281 L 119.773438 180.238281 Z M 145.253906 183.207031 L 141.660156 183.207031 L 139.3125 176.511719 C 139.097656 175.929688 138.8125 175.402344 138.453125 174.910156 C 138.109375 174.421875 137.695313 174.007813 137.230469 173.652344 C 136.765625 173.296875 136.242188 173.023438 135.664063 172.832031 C 135.09375 172.636719 134.488281 172.539063 133.847656 172.539063 L 127.714844 172.539063 L 127.714844 183.207031 L 124.40625 183.207031 L 124.40625 158.238281 L 135.476563 158.238281 C 136.140625 158.238281 136.78125 158.246094 137.378906 158.28125 C 137.988281 158.316406 138.570313 158.386719 139.117188 158.488281 C 139.660156 158.597656 140.183594 158.761719 140.671875 158.972656 C 141.164063 159.1875 141.636719 159.484375 142.074219 159.863281 C 142.828125 160.53125 143.40625 161.335938 143.800781 162.285156 C 144.1875 163.230469 144.378906 164.210938 144.378906 165.21875 C 144.378906 166.089844 144.246094 166.890625 143.992188 167.621094 C 143.734375 168.347656 143.367188 168.996094 142.882813 169.570313 C 142.390625 170.136719 141.804688 170.617188 141.113281 171.003906 C 140.414063 171.398438 139.632813 171.671875 138.761719 171.835938 L 138.761719 171.894531 C 140.507813 172.4375 141.84375 173.941406 142.773438 176.414063 Z M 127.714844 169.546875 L 135.132813 169.546875 C 136.152344 169.546875 137.03125 169.472656 137.769531 169.324219 C 138.511719 169.164063 139.109375 168.921875 139.589844 168.582031 C 140.058594 168.246094 140.410156 167.789063 140.628906 167.238281 C 140.847656 166.683594 140.953125 166.011719 140.953125 165.21875 C 140.953125 163.777344 140.519531 162.71875 139.632813 162.027344 C 138.746094 161.34375 137.414063 160.996094 135.621094 160.996094 L 127.714844 160.996094 Z M 159.039063 183.640625 C 157.273438 183.640625 155.730469 183.433594 154.414063 183.019531 C 153.097656 182.601563 151.996094 182.019531 151.128906 181.269531 C 150.246094 180.515625 149.585938 179.621094 149.121094 178.589844 C 148.675781 177.558594 148.429688 176.414063 148.390625 175.164063 L 151.566406 175.164063 C 151.65625 176.109375 151.910156 176.929688 152.328125 177.628906 C 152.742188 178.320313 153.277344 178.894531 153.925781 179.347656 C 154.574219 179.804688 155.320313 180.132813 156.164063 180.351563 C 157.011719 180.566406 157.914063 180.667969 158.871094 180.667969 C 159.804688 180.667969 160.652344 180.574219 161.414063 180.378906 C 162.175781 180.1875 162.828125 179.902344 163.371094 179.527344 C 163.914063 179.160156 164.328125 178.707031 164.628906 178.183594 C 164.925781 177.660156 165.074219 177.074219 165.074219 176.414063 C 165.074219 175.738281 164.941406 175.15625 164.664063 174.671875 C 164.398438 174.195313 163.953125 173.78125 163.34375 173.421875 C 162.730469 173.078125 161.929688 172.753906 160.941406 172.46875 C 159.953125 172.183594 158.734375 171.894531 157.28125 171.589844 C 155.878906 171.273438 154.671875 170.914063 153.660156 170.507813 C 152.644531 170.09375 151.8125 169.617188 151.160156 169.066406 C 150.515625 168.515625 150.03125 167.890625 149.714844 167.1875 C 149.398438 166.476563 149.242188 165.65625 149.242188 164.726563 C 149.242188 163.726563 149.453125 162.804688 149.886719 161.949219 C 150.3125 161.105469 150.921875 160.367188 151.703125 159.761719 C 152.484375 159.148438 153.421875 158.667969 154.511719 158.320313 C 155.601563 157.972656 156.808594 157.792969 158.132813 157.792969 C 159.535156 157.792969 160.8125 157.972656 161.964844 158.316406 C 163.117188 158.652344 164.113281 159.148438 164.953125 159.796875 C 165.789063 160.445313 166.449219 161.234375 166.921875 162.164063 C 167.394531 163.085938 167.652344 164.140625 167.683594 165.316406 L 164.488281 165.316406 C 164.152344 162.296875 162.078125 160.789063 158.28125 160.789063 C 156.429688 160.789063 155.003906 161.136719 153.996094 161.820313 C 152.996094 162.503906 152.496094 163.4375 152.496094 164.609375 C 152.496094 165.140625 152.585938 165.59375 152.769531 165.964844 C 152.953125 166.335938 153.273438 166.664063 153.71875 166.949219 C 154.164063 167.234375 154.757813 167.492188 155.488281 167.722656 C 156.214844 167.957031 157.132813 168.1875 158.230469 168.414063 C 158.972656 168.5625 159.734375 168.730469 160.53125 168.90625 C 161.316406 169.078125 162.085938 169.296875 162.835938 169.558594 C 163.578125 169.816406 164.289063 170.132813 164.953125 170.492188 C 165.617188 170.863281 166.191406 171.296875 166.695313 171.816406 C 167.195313 172.332031 167.585938 172.945313 167.878906 173.652344 C 168.164063 174.359375 168.3125 175.1875 168.3125 176.128906 C 168.3125 177.226563 168.078125 178.234375 167.621094 179.160156 C 167.160156 180.082031 166.515625 180.871094 165.6875 181.535156 C 164.863281 182.195313 163.886719 182.710938 162.746094 183.085938 C 161.613281 183.460938 160.382813 183.640625 159.039063 183.640625 Z M 176.632813 183.207031 L 173.339844 183.207031 L 173.339844 158.238281 L 176.632813 158.238281 Z M 203.246094 170.589844 C 203.246094 179.003906 199.007813 183.207031 190.515625 183.207031 L 182.59375 183.207031 L 182.59375 158.238281 L 190.515625 158.238281 C 199.007813 158.238281 203.246094 162.355469 203.246094 170.589844 Z M 199.847656 170.589844 C 199.847656 169.121094 199.699219 167.8125 199.410156 166.65625 C 199.117188 165.496094 198.621094 164.507813 197.902344 163.699219 C 197.195313 162.894531 196.230469 162.28125 195.03125 161.847656 C 193.824219 161.417969 192.3125 161.207031 190.476563 161.207031 L 185.898438 161.207031 L 185.898438 180.238281 L 190.476563 180.238281 C 192.300781 180.238281 193.804688 180.019531 195.011719 179.585938 C 196.21875 179.152344 197.175781 178.511719 197.898438 177.6875 C 198.613281 176.855469 199.117188 175.839844 199.410156 174.644531 C 199.699219 173.457031 199.847656 172.101563 199.847656 170.589844 Z M 220.730469 172.972656 L 216.320313 161.414063 L 212.140625 172.972656 Z M 228.328125 183.207031 L 224.585938 183.207031 L 221.691406 175.621094 L 211.230469 175.621094 L 208.46875 183.207031 L 204.988281 183.207031 L 214.5625 158.238281 L 218.152344 158.238281 Z M 251.730469 170.589844 C 251.730469 179.003906 247.488281 183.207031 238.996094 183.207031 L 231.074219 183.207031 L 231.074219 158.238281 L 238.996094 158.238281 C 247.488281 158.238281 251.730469 162.355469 251.730469 170.589844 Z M 248.328125 170.589844 C 248.328125 169.121094 248.179688 167.8125 247.890625 166.65625 C 247.597656 165.496094 247.101563 164.507813 246.382813 163.699219 C 245.675781 162.894531 244.710938 162.28125 243.511719 161.847656 C 242.304688 161.417969 240.789063 161.207031 238.953125 161.207031 L 234.378906 161.207031 L 234.378906 180.238281 L 238.953125 180.238281 C 240.78125 180.238281 242.285156 180.019531 243.492188 179.585938 C 244.699219 179.152344 245.65625 178.511719 246.378906 177.6875 C 247.09375 176.855469 247.597656 175.839844 247.890625 174.644531 C 248.179688 173.457031 248.328125 172.101563 248.328125 170.589844 Z M 248.328125 170.589844 "/>
<g clip-path="url(#clip1)" clip-rule="nonzero">
<path style=" stroke:none;fill-rule:evenodd;fill:rgb(40.380859%,44.309998%,25.488281%);fill-opacity:1;" d="M 23.003906 220.753906 L 23.003906 227.09375 L 0.0859375 227.09375 L 0.0859375 192.503906 L 22.691406 192.503906 L 22.691406 198.839844 L 7.828125 198.839844 L 7.828125 206.101563 L 22.007813 206.101563 L 22.007813 212.4375 L 7.828125 212.4375 L 7.828125 220.753906 Z M 52.621094 220.753906 L 52.621094 227.09375 L 28.921875 227.09375 L 28.921875 192.503906 L 36.667969 192.503906 L 36.667969 220.753906 Z M 69.621094 192.503906 L 83.0625 192.503906 C 86.257813 192.503906 88.78125 193.363281 90.613281 195.078125 C 92.441406 196.792969 93.359375 198.824219 93.359375 201.167969 C 93.359375 204.167969 91.941406 206.480469 89.109375 208.078125 C 91.246094 208.703125 92.882813 209.8125 94.015625 211.398438 C 95.152344 212.980469 95.722656 214.832031 95.722656 216.945313 C 95.722656 219.941406 94.789063 222.386719 92.933594 224.269531 C 91.082031 226.15625 88.355469 227.09375 84.746094 227.09375 L 69.621094 227.09375 Z M 77.367188 198.839844 L 77.367188 206.242188 L 81.414063 206.242188 C 82.660156 206.242188 83.632813 205.890625 84.332031 205.179688 C 85.019531 204.46875 85.371094 203.582031 85.371094 202.507813 C 85.371094 201.453125 85.019531 200.574219 84.332031 199.878906 C 83.632813 199.1875 82.660156 198.839844 81.414063 198.839844 Z M 77.367188 212.582031 L 77.367188 220.753906 L 81.726563 220.753906 C 83.785156 220.753906 85.273438 220.433594 86.171875 219.796875 C 87.078125 219.164063 87.527344 218.066406 87.527344 216.496094 C 87.527344 215.292969 87.101563 214.339844 86.246094 213.640625 C 85.378906 212.9375 84.230469 212.582031 82.789063 212.582031 Z M 117.921875 192.054688 C 123.214844 192.054688 127.507813 193.835938 130.78125 197.394531 C 134.058594 200.953125 135.699219 205.085938 135.699219 209.8125 C 135.699219 214.59375 134.039063 218.746094 130.71875 222.265625 C 127.390625 225.78125 123.121094 227.539063 117.921875 227.539063 C 112.660156 227.539063 108.367188 225.792969 105.0625 222.289063 C 101.753906 218.789063 100.097656 214.628906 100.097656 209.8125 C 100.097656 205.078125 101.746094 200.929688 105.027344 197.378906 C 108.316406 193.828125 112.613281 192.054688 117.921875 192.054688 Z M 117.921875 220.355469 C 120.859375 220.355469 123.222656 219.386719 125.023438 217.449219 C 126.816406 215.507813 127.710938 212.960938 127.710938 209.8125 C 127.710938 206.640625 126.816406 204.089844 125.023438 202.160156 C 123.222656 200.226563 120.859375 199.261719 117.921875 199.261719 C 114.96875 199.261719 112.589844 200.226563 110.789063 202.160156 C 108.992188 204.089844 108.085938 206.640625 108.085938 209.8125 C 108.085938 212.960938 108.992188 215.507813 110.789063 217.449219 C 112.589844 219.386719 114.96875 220.355469 117.921875 220.355469 Z M 162.394531 194.734375 L 162.394531 201.496094 C 158.273438 199.433594 154.992188 198.394531 152.546875 198.394531 C 151.148438 198.394531 150.039063 198.65625 149.21875 199.179688 C 148.390625 199.695313 147.980469 200.386719 147.980469 201.242188 C 147.980469 201.910156 148.277344 202.535156 148.871094 203.121094 C 149.460938 203.71875 150.914063 204.484375 153.203125 205.433594 C 155.507813 206.371094 157.347656 207.242188 158.726563 208.046875 C 160.109375 208.863281 161.296875 210.003906 162.296875 211.46875 C 163.300781 212.9375 163.800781 214.792969 163.800781 217.039063 C 163.800781 220.238281 162.703125 222.789063 160.519531 224.691406 C 158.328125 226.582031 155.449219 227.539063 151.878906 227.539063 C 148.019531 227.539063 144.28125 226.425781 140.660156 224.195313 L 140.660156 216.742188 C 142.742188 218.292969 144.578125 219.429688 146.183594 220.136719 C 147.785156 220.847656 149.476563 221.203125 151.277344 221.203125 C 154.316406 221.203125 155.835938 220.136719 155.835938 218.007813 C 155.835938 217.28125 155.53125 216.597656 154.921875 215.953125 C 154.316406 215.304688 152.851563 214.527344 150.527344 213.597656 C 148.210938 212.671875 146.371094 211.8125 145.011719 211.027344 C 143.652344 210.234375 142.484375 209.101563 141.496094 207.628906 C 140.507813 206.160156 140.015625 204.285156 140.015625 201.984375 C 140.015625 199.019531 141.09375 196.617188 143.242188 194.789063 C 145.390625 192.96875 148.269531 192.054688 151.878906 192.054688 C 155.195313 192.054688 158.703125 192.949219 162.394531 194.734375 Z M 203.050781 228.605469 L 203.535156 229.324219 L 197.484375 235.0625 C 195.828125 234.9375 194.105469 234.578125 192.328125 233.996094 C 190.648438 233.457031 188.949219 232.730469 187.230469 231.824219 C 185.597656 230.945313 183.980469 229.925781 182.378906 228.75 C 181.191406 227.875 179.78125 227.109375 178.15625 226.449219 C 176.804688 225.902344 175.503906 225.140625 174.257813 224.144531 C 172.96875 223.121094 171.835938 221.917969 170.855469 220.535156 C 169.800781 219.066406 168.996094 217.476563 168.425781 215.777344 C 167.804688 213.910156 167.492188 211.992188 167.492188 210.011719 C 167.492188 205.222656 169.179688 201.039063 172.558594 197.445313 C 175.929688 193.855469 180.214844 192.054688 185.410156 192.054688 C 190.671875 192.054688 194.945313 193.847656 198.21875 197.429688 C 201.496094 201.011719 203.140625 205.101563 203.140625 209.710938 C 203.140625 213.445313 202.09375 216.867188 200.011719 219.984375 C 197.933594 223.105469 195.113281 225.285156 191.566406 226.527344 C 194.269531 228.242188 197.089844 229.097656 200.019531 229.097656 C 201.164063 229.097656 202.175781 228.933594 203.050781 228.605469 Z M 185.316406 199.261719 C 182.363281 199.261719 179.984375 200.242188 178.1875 202.195313 C 176.386719 204.15625 175.480469 206.726563 175.480469 209.910156 C 175.480469 213.082031 176.386719 215.640625 178.1875 217.585938 C 179.984375 219.53125 182.363281 220.507813 185.316406 220.507813 C 188.226563 220.507813 190.589844 219.542969 192.414063 217.621094 C 194.242188 215.699219 195.152344 213.132813 195.152344 209.910156 C 195.152344 206.65625 194.226563 204.070313 192.378906 202.144531 C 190.535156 200.226563 188.179688 199.261719 185.316406 199.261719 Z M 231.746094 192.503906 L 239.496094 192.503906 L 239.496094 212.132813 C 239.496094 217.1875 238.152344 221.015625 235.464844 223.628906 C 232.785156 226.230469 228.949219 227.539063 223.96875 227.539063 C 219.039063 227.539063 215.21875 226.210938 212.496094 223.578125 C 209.773438 220.933594 208.414063 217.136719 208.414063 212.183594 L 208.414063 192.503906 L 216.175781 192.503906 L 216.175781 212.386719 C 216.175781 214.792969 216.886719 216.722656 218.300781 218.171875 C 219.722656 219.628906 221.574219 220.355469 223.871094 220.355469 C 226.269531 220.355469 228.175781 219.613281 229.601563 218.121094 C 231.039063 216.648438 231.746094 214.535156 231.746094 211.789063 Z M 269.214844 220.753906 L 269.214844 227.09375 L 246.304688 227.09375 L 246.304688 192.503906 L 268.90625 192.503906 L 268.90625 198.839844 L 254.039063 198.839844 L 254.039063 206.101563 L 268.222656 206.101563 L 268.222656 212.4375 L 254.039063 212.4375 L 254.039063 220.753906 Z M 269.214844 220.753906 "/>
</g>
<path style="fill-rule:evenodd;fill:rgb(100%,100%,100%);fill-opacity:1;stroke-width:2.16;stroke-linecap:butt;stroke-linejoin:miter;stroke:rgb(94.139099%,48.631287%,0%);stroke-opacity:1;stroke-miterlimit:4;" d="M 1561.992188 2254.085938 C 1545.195313 2254.085938 1531.601563 2241.15625 1531.601563 2225.21875 C 1531.601563 2209.28125 1545.195313 2196.390625 1561.992188 2196.390625 C 1578.789063 2196.390625 1592.382813 2209.28125 1592.382813 2225.21875 C 1592.382813 2241.15625 1578.789063 2254.085938 1561.992188 2254.085938 Z M 1561.992188 2254.085938 " transform="matrix(0.1,0,0,-0.1,0,235.1)"/>
<path style="fill-rule:evenodd;fill:rgb(100%,100%,100%);fill-opacity:1;stroke-width:2.16;stroke-linecap:butt;stroke-linejoin:miter;stroke:rgb(94.139099%,48.631287%,0%);stroke-opacity:1;stroke-miterlimit:4;" d="M 1069.960938 2264.828125 C 1086.757813 2264.828125 1100.390625 2251.898438 1100.390625 2236.039063 C 1100.390625 2220.0625 1086.757813 2207.132813 1069.960938 2207.132813 C 1053.203125 2207.132813 1039.53125 2220.0625 1039.53125 2236.039063 C 1039.53125 2251.898438 1053.203125 2264.828125 1069.960938 2264.828125 Z M 1069.960938 2264.828125 " transform="matrix(0.1,0,0,-0.1,0,235.1)"/>
</g>
</svg>
