<svg width="149" height="81" viewBox="0 0 149 81" fill="none" xmlns="http://www.w3.org/2000/svg">
<path d="M2.13181 74.3758V59.6659C2.13181 59.4931 2.19661 59.3635 2.32621 59.2771C2.45582 59.1763 2.60702 59.1259 2.77983 59.1259H10.4264C10.5992 59.1259 10.7288 59.1907 10.8152 59.3203C10.916 59.4355 10.9664 59.5795 10.9664 59.7523C10.9664 59.9395 10.916 60.1051 10.8152 60.2491C10.7288 60.3787 10.5992 60.4435 10.4264 60.4435H3.55744V66.3836H6.97032C7.12872 66.3836 7.25113 66.4484 7.33753 66.578C7.43833 66.6932 7.48873 66.8444 7.48873 67.0316C7.48873 67.4204 7.31593 67.6149 6.97032 67.6149H3.55744V74.3758C3.55744 74.5486 3.48544 74.6854 3.34144 74.7862C3.19743 74.8726 3.03183 74.9158 2.84463 74.9158C2.36942 74.9158 2.13181 74.7358 2.13181 74.3758ZM9.77281 70.9629V68.6085C9.77281 67.514 10.176 66.5708 10.9824 65.7788C11.7889 64.9724 12.7465 64.5692 13.8553 64.5692C14.9641 64.5692 15.929 64.9652 16.7498 65.7572C17.5706 66.5492 17.981 67.4996 17.981 68.6085V70.9629C17.981 72.043 17.5634 73.0006 16.7282 73.8358C15.9074 74.6566 14.9497 75.067 13.8553 75.067C12.7753 75.067 11.8249 74.6566 11.004 73.8358C10.1832 73.0006 9.77281 72.043 9.77281 70.9629ZM11.1768 70.9629C11.1768 71.6973 11.4361 72.3526 11.9545 72.9286C12.4873 73.4902 13.1209 73.771 13.8553 73.771C14.6041 73.771 15.2449 73.4902 15.7778 72.9286C16.3106 72.3526 16.577 71.6973 16.577 70.9629V68.6085C16.577 67.9029 16.3034 67.2692 15.7562 66.7076C15.2233 66.146 14.5897 65.8652 13.8553 65.8652C13.1209 65.8652 12.4873 66.146 11.9545 66.7076C11.4361 67.2692 11.1768 67.9029 11.1768 68.6085V70.9629ZM20.1794 71.0061V65.2388C20.1794 65.1092 20.2442 64.9868 20.3738 64.8716C20.5178 64.7564 20.6906 64.6988 20.8922 64.6988C21.065 64.6988 21.2234 64.7564 21.3674 64.8716C21.5114 64.9868 21.5834 65.1092 21.5834 65.2388V71.0061C21.5834 71.7261 21.8498 72.367 22.3826 72.9286C22.9154 73.4902 23.549 73.771 24.2835 73.771C25.0179 73.771 25.6515 73.4902 26.1843 72.9286C26.7171 72.367 26.9835 71.7261 26.9835 71.0061V65.2172C26.9835 65.0732 27.0555 64.9508 27.1995 64.85C27.3435 64.7492 27.5091 64.6988 27.6963 64.6988C27.8835 64.6988 28.0419 64.7492 28.1715 64.85C28.3155 64.9508 28.3875 65.0732 28.3875 65.2172V71.0061C28.3875 72.0862 27.9771 73.0366 27.1563 73.8574C26.3499 74.6638 25.3923 75.067 24.2835 75.067C23.1602 75.067 22.1954 74.6638 21.389 73.8574C20.5826 73.0366 20.1794 72.0862 20.1794 71.0061ZM31.0032 74.3542V65.2172C31.0032 65.0732 31.068 64.9508 31.1976 64.85C31.3272 64.7492 31.4928 64.6988 31.6944 64.6988C31.8816 64.6988 32.04 64.7492 32.1697 64.85C32.2993 64.9508 32.3641 65.0732 32.3641 65.2172V66.2756C32.6233 65.8004 33.0049 65.3972 33.5089 65.066C34.0129 64.7348 34.5961 64.5692 35.2585 64.5692H36.0145C36.1585 64.5692 36.2881 64.634 36.4033 64.7636C36.5186 64.8932 36.5762 65.0444 36.5762 65.2172C36.5762 65.39 36.5186 65.5412 36.4033 65.6708C36.2881 65.8004 36.1585 65.8652 36.0145 65.8652H35.2585C34.5097 65.8652 33.8473 66.1604 33.2713 66.7508C32.6953 67.3268 32.4073 68.0829 32.4073 69.0189V74.3542C32.4073 74.4982 32.3353 74.6278 32.1913 74.743C32.0616 74.8582 31.896 74.9158 31.6944 74.9158C31.5072 74.9158 31.3416 74.8582 31.1976 74.743C31.068 74.6278 31.0032 74.4982 31.0032 74.3542ZM38.435 74.3542V59.6443C38.435 59.3275 38.6366 59.1547 39.0398 59.1259H43.0143C44.3679 59.1259 45.4479 59.4931 46.2544 60.2275C47.0608 60.9619 47.464 62.1211 47.464 63.7052V63.9212C47.464 65.5052 47.0536 66.6716 46.2328 67.4204C45.4263 68.1549 44.3391 68.5221 42.9711 68.5221H39.8606V74.3542C39.8606 74.527 39.7886 74.6638 39.6446 74.7646C39.5006 74.8654 39.335 74.9158 39.1478 74.9158C38.9462 74.9158 38.7734 74.8654 38.6294 74.7646C38.4998 74.6638 38.435 74.527 38.435 74.3542ZM39.8606 67.2908H42.9711C43.9503 67.2908 44.7063 67.0172 45.2391 66.47C45.7719 65.9228 46.0383 65.0948 46.0383 63.986V63.7268C46.0383 61.5379 45.0159 60.4435 42.9711 60.4435H39.8606V67.2908ZM48.5369 72.2158C48.5369 71.1069 48.9617 70.3365 49.8113 69.9045C50.6754 69.4725 51.9282 69.2565 53.5698 69.2565H54.6715V68.7381C54.6715 67.9461 54.4626 67.262 54.045 66.686C53.6274 66.0956 52.9866 65.8004 52.1226 65.8004C51.5466 65.8004 51.021 65.9084 50.5458 66.1244C50.085 66.326 49.8401 66.4268 49.8113 66.4268C49.6385 66.4268 49.5017 66.3476 49.4009 66.1892C49.3001 66.0308 49.2497 65.858 49.2497 65.6708C49.2497 65.3972 49.5593 65.1452 50.1786 64.9148C50.7978 64.6844 51.4602 64.5692 52.1658 64.5692C53.5194 64.5692 54.5059 64.9652 55.1251 65.7572C55.7587 66.5348 56.0755 67.5284 56.0755 68.7381V74.3542C56.0755 74.5126 56.0107 74.6494 55.8811 74.7646C55.7515 74.8654 55.5859 74.9158 55.3843 74.9158C55.1971 74.9158 55.0387 74.8654 54.9091 74.7646C54.7939 74.6494 54.7363 74.5126 54.7363 74.3542V73.4038C53.7714 74.5126 52.6842 75.067 51.4746 75.067C50.6106 75.067 49.9049 74.8294 49.3577 74.3542C48.8105 73.8646 48.5369 73.1518 48.5369 72.2158ZM49.9409 72.0862C49.9409 72.691 50.1138 73.1446 50.4594 73.447C50.805 73.735 51.2586 73.879 51.8202 73.879C52.497 73.879 53.1378 73.627 53.7426 73.123C54.3618 72.619 54.6715 72.115 54.6715 71.6109V70.2285H53.7642C53.1882 70.2285 52.6986 70.2501 52.2954 70.2933C51.9066 70.3365 51.5178 70.4157 51.129 70.5309C50.7402 70.6461 50.445 70.8333 50.2434 71.0925C50.0417 71.3517 49.9409 71.6829 49.9409 72.0862ZM57.5366 65.282C57.5366 65.1092 57.623 64.9652 57.7958 64.85C57.983 64.7204 58.1774 64.6556 58.379 64.6556C58.6382 64.6556 58.8038 64.7636 58.8758 64.9796L61.6407 72.6694L63.8655 65.6492C63.9375 65.4044 64.1247 65.282 64.4271 65.282C64.7295 65.282 64.9167 65.4044 64.9887 65.6492L67.1272 72.7558L69.9568 64.9796C70 64.7636 70.1584 64.6556 70.4321 64.6556C70.6337 64.6556 70.8209 64.7132 70.9937 64.8284C71.1809 64.9436 71.2745 65.0948 71.2745 65.282C71.2745 65.4116 71.2457 65.5196 71.1881 65.606L67.8184 74.743C67.7464 74.9734 67.5592 75.0886 67.2568 75.0886C66.9832 75.0886 66.7888 74.9806 66.6736 74.7646L64.4271 67.7445L62.2023 74.6566C62.1159 74.9446 61.9071 75.0886 61.5758 75.0886C61.2734 75.0886 61.079 74.9446 60.9926 74.6566L57.623 65.606C57.5654 65.4908 57.5366 65.3828 57.5366 65.282ZM72.3327 73.5118C72.3327 73.3678 72.3831 73.2238 72.4839 73.0798C72.5847 72.9358 72.6999 72.8638 72.8295 72.8638C72.9303 72.8638 73.0887 72.9502 73.3047 73.123C73.5207 73.2814 73.8304 73.447 74.2336 73.6198C74.6368 73.7926 75.1192 73.879 75.6808 73.879C76.444 73.879 77.0056 73.735 77.3656 73.447C77.7256 73.159 77.9056 72.7918 77.9056 72.3454C77.9056 71.8269 77.7184 71.4165 77.344 71.1141C76.984 70.7973 76.5448 70.5669 76.0264 70.4229C75.508 70.2789 74.9824 70.1205 74.4496 69.9477C73.9312 69.7749 73.4847 69.4941 73.1103 69.1053C72.7503 68.7021 72.5703 68.1693 72.5703 67.5068C72.5703 66.7148 72.8511 66.0308 73.4127 65.4548C73.9888 64.8644 74.8456 64.5692 75.9832 64.5692C76.6888 64.5692 77.344 64.6844 77.9488 64.9148C78.5681 65.1308 78.8777 65.3684 78.8777 65.6276C78.8777 65.7716 78.8201 65.93 78.7049 66.1028C78.5897 66.2756 78.4529 66.362 78.2945 66.362C78.2513 66.362 77.9848 66.2612 77.4952 66.0596C77.0056 65.858 76.5088 65.7572 76.0048 65.7572C75.2848 65.7572 74.7448 65.93 74.3848 66.2756C74.0248 66.6212 73.8448 67.01 73.8448 67.442C73.8448 67.8885 74.0248 68.2413 74.3848 68.5005C74.7592 68.7597 75.2056 68.9613 75.724 69.1053C76.2568 69.2349 76.7824 69.3933 77.3008 69.5805C77.8336 69.7533 78.2801 70.0701 78.6401 70.5309C79.0145 70.9773 79.2017 71.5605 79.2017 72.2806C79.2017 73.1446 78.8921 73.8286 78.2729 74.3326C77.668 74.8222 76.8184 75.067 75.724 75.067C74.7736 75.067 73.9672 74.9014 73.3047 74.5702C72.6567 74.2246 72.3327 73.8718 72.3327 73.5118ZM81.3999 70.4229V63.7268C81.3999 62.1571 81.8175 60.9979 82.6527 60.2491C83.5023 59.5003 84.5967 59.1259 85.936 59.1259C87.304 59.1259 88.384 59.4787 89.176 60.1843C89.9825 60.8755 90.3857 61.7251 90.3857 62.7331C90.3857 63.0787 90.3281 63.3092 90.2129 63.4244C90.1121 63.5396 89.9321 63.5972 89.6729 63.5972C89.2264 63.5972 88.9888 63.4172 88.96 63.0571C88.9456 62.8411 88.9168 62.6323 88.8736 62.4307C88.8304 62.2291 88.744 62.0059 88.6144 61.7611C88.4848 61.5019 88.312 61.2787 88.096 61.0915C87.8944 60.9043 87.6064 60.7531 87.232 60.6379C86.8576 60.5083 86.4256 60.4435 85.936 60.4435C83.8623 60.4435 82.8255 61.5379 82.8255 63.7268V70.4229C82.8255 72.6262 83.8911 73.7278 86.0224 73.7278C86.6272 73.7278 87.1312 73.6486 87.5344 73.4902C87.9376 73.3174 88.2328 73.0726 88.42 72.7558C88.6072 72.439 88.7296 72.1726 88.7872 71.9566C88.8592 71.7261 88.9168 71.4309 88.96 71.0709C89.0032 70.6965 89.2408 70.5093 89.6729 70.5093C89.9321 70.5093 90.1121 70.5741 90.2129 70.7037C90.3281 70.8189 90.3857 71.0493 90.3857 71.3949C90.3857 72.4174 89.9753 73.2814 89.1544 73.987C88.348 74.6926 87.2536 75.0454 85.8712 75.0454C84.5463 75.0454 83.4663 74.671 82.6311 73.9222C81.8103 73.1734 81.3999 72.007 81.3999 70.4229ZM92.5984 61.4155C92.4112 61.2283 92.3176 61.0123 92.3176 60.7675C92.3176 60.5227 92.4112 60.3139 92.5984 60.1411C92.7856 59.9683 93.016 59.8819 93.2896 59.8819C93.5488 59.8819 93.7648 59.9683 93.9376 60.1411C94.1248 60.3139 94.2184 60.5227 94.2184 60.7675C94.2184 61.0123 94.1248 61.2283 93.9376 61.4155C93.7648 61.5883 93.5488 61.6747 93.2896 61.6747C93.016 61.6747 92.7856 61.5883 92.5984 61.4155ZM92.5984 74.3542V65.2172C92.5984 65.0732 92.6632 64.9508 92.7928 64.85C92.9224 64.7492 93.088 64.6988 93.2896 64.6988C93.4912 64.6988 93.6568 64.7492 93.7864 64.85C93.9304 64.9508 94.0024 65.0732 94.0024 65.2172V74.3542C94.0024 74.4982 93.9304 74.6278 93.7864 74.743C93.6424 74.8582 93.4768 74.9158 93.2896 74.9158C93.1024 74.9158 92.9368 74.8582 92.7928 74.743C92.6632 74.6278 92.5984 74.4982 92.5984 74.3542ZM96.6896 71.7405V60.3571C96.6896 60.2131 96.7616 60.0907 96.9056 59.9899C97.0496 59.8891 97.2081 59.8387 97.3809 59.8387C97.5681 59.8387 97.7337 59.8891 97.8777 59.9899C98.0217 60.0907 98.0937 60.2131 98.0937 60.3571V64.6988H100.88C101.024 64.6988 101.139 64.7564 101.226 64.8716C101.327 64.9868 101.377 65.1236 101.377 65.282C101.377 65.4404 101.327 65.5772 101.226 65.6924C101.139 65.8076 101.024 65.8652 100.88 65.8652H98.0937V71.7405C98.0937 72.4462 98.2377 72.943 98.5257 73.231C98.8281 73.5046 99.3537 73.6414 100.103 73.6414H100.707C100.895 73.6414 101.046 73.7062 101.161 73.8358C101.291 73.951 101.355 74.095 101.355 74.2678C101.355 74.4406 101.291 74.5918 101.161 74.7214C101.046 74.851 100.895 74.9158 100.707 74.9158H100.103C97.8273 74.9158 96.6896 73.8574 96.6896 71.7405ZM103.145 61.4155C102.958 61.2283 102.865 61.0123 102.865 60.7675C102.865 60.5227 102.958 60.3139 103.145 60.1411C103.333 59.9683 103.563 59.8819 103.837 59.8819C104.096 59.8819 104.312 59.9683 104.485 60.1411C104.672 60.3139 104.766 60.5227 104.766 60.7675C104.766 61.0123 104.672 61.2283 104.485 61.4155C104.312 61.5883 104.096 61.6747 103.837 61.6747C103.563 61.6747 103.333 61.5883 103.145 61.4155ZM103.145 74.3542V65.2172C103.145 65.0732 103.21 64.9508 103.34 64.85C103.469 64.7492 103.635 64.6988 103.837 64.6988C104.038 64.6988 104.204 64.7492 104.334 64.85C104.478 64.9508 104.55 65.0732 104.55 65.2172V74.3542C104.55 74.4982 104.478 74.6278 104.334 74.743C104.19 74.8582 104.024 74.9158 103.837 74.9158C103.649 74.9158 103.484 74.8582 103.34 74.743C103.21 74.6278 103.145 74.4982 103.145 74.3542ZM106.438 74.3542C106.438 74.1958 106.51 74.0158 106.654 73.8142L111.946 65.93H107.172C107.028 65.93 106.906 65.8724 106.805 65.7572C106.704 65.6276 106.654 65.4836 106.654 65.3252C106.654 65.1524 106.704 65.0084 106.805 64.8932C106.906 64.7636 107.028 64.6988 107.172 64.6988H113.285C113.429 64.6988 113.551 64.7492 113.652 64.85C113.767 64.9508 113.825 65.0876 113.825 65.2604C113.825 65.4476 113.767 65.6204 113.652 65.7788L108.338 73.663H113.566C113.71 73.663 113.832 73.7278 113.933 73.8574C114.034 73.9726 114.084 74.1238 114.084 74.311C114.084 74.4694 114.034 74.6134 113.933 74.743C113.832 74.8582 113.71 74.9158 113.566 74.9158H107.021C106.848 74.9158 106.704 74.8582 106.589 74.743C106.488 74.6278 106.438 74.4982 106.438 74.3542ZM115.95 61.4155C115.762 61.2283 115.669 61.0123 115.669 60.7675C115.669 60.5227 115.762 60.3139 115.95 60.1411C116.137 59.9683 116.367 59.8819 116.641 59.8819C116.9 59.8819 117.116 59.9683 117.289 60.1411C117.476 60.3139 117.57 60.5227 117.57 60.7675C117.57 61.0123 117.476 61.2283 117.289 61.4155C117.116 61.5883 116.9 61.6747 116.641 61.6747C116.367 61.6747 116.137 61.5883 115.95 61.4155ZM115.95 74.3542V65.2172C115.95 65.0732 116.014 64.9508 116.144 64.85C116.274 64.7492 116.439 64.6988 116.641 64.6988C116.843 64.6988 117.008 64.7492 117.138 64.85C117.282 64.9508 117.354 65.0732 117.354 65.2172V74.3542C117.354 74.4982 117.282 74.6278 117.138 74.743C116.994 74.8582 116.828 74.9158 116.641 74.9158C116.454 74.9158 116.288 74.8582 116.144 74.743C116.014 74.6278 115.95 74.4982 115.95 74.3542ZM119.695 70.9629V68.5437C119.695 67.4636 120.099 66.5348 120.905 65.7572C121.711 64.9652 122.683 64.5692 123.821 64.5692C124.915 64.5692 125.859 64.9436 126.651 65.6924C127.457 66.4412 127.86 67.3772 127.86 68.5005C127.86 68.9037 127.81 69.2277 127.709 69.4725C127.623 69.7173 127.472 69.8901 127.256 69.9909C127.054 70.0917 126.867 70.1565 126.694 70.1853C126.521 70.2141 126.283 70.2285 125.981 70.2285H121.099V71.0277C121.099 71.8773 121.402 72.5614 122.007 73.0798C122.626 73.5838 123.418 73.8358 124.383 73.8358C124.872 73.8358 125.297 73.7638 125.657 73.6198C126.031 73.4758 126.312 73.3318 126.499 73.1878C126.701 73.0438 126.86 72.9718 126.975 72.9718C127.133 72.9718 127.27 73.051 127.385 73.2094C127.515 73.3534 127.58 73.4974 127.58 73.6414C127.58 73.9438 127.27 74.2606 126.651 74.5918C126.031 74.9086 125.261 75.067 124.339 75.067C122.971 75.067 121.855 74.6926 120.991 73.9438C120.127 73.1806 119.695 72.187 119.695 70.9629ZM121.099 69.1917H125.419C125.851 69.1917 126.139 69.1485 126.283 69.0621C126.427 68.9613 126.499 68.7597 126.499 68.4573C126.499 67.7373 126.24 67.1036 125.722 66.5564C125.218 66.0092 124.577 65.7356 123.799 65.7356C123.051 65.7356 122.41 65.9948 121.877 66.5132C121.359 67.0316 121.099 67.6509 121.099 68.3709V69.1917ZM129.977 74.3542V65.2172C129.977 65.0588 130.042 64.9364 130.172 64.85C130.301 64.7492 130.467 64.6988 130.669 64.6988C130.841 64.6988 130.993 64.7492 131.122 64.85C131.252 64.9508 131.317 65.0732 131.317 65.2172V66.2108C131.561 65.75 131.936 65.3612 132.44 65.0444C132.944 64.7276 133.534 64.5692 134.211 64.5692C135.248 64.5692 136.148 64.9652 136.911 65.7572C137.674 66.5492 138.056 67.4996 138.056 68.6085V74.3542C138.056 74.527 137.984 74.6638 137.84 74.7646C137.696 74.8654 137.53 74.9158 137.343 74.9158C137.17 74.9158 137.012 74.8654 136.868 74.7646C136.724 74.6638 136.652 74.527 136.652 74.3542V68.6085C136.652 67.9029 136.385 67.2692 135.853 66.7076C135.32 66.146 134.686 65.8652 133.952 65.8652C133.275 65.8652 132.677 66.1172 132.159 66.6212C131.641 67.1252 131.381 67.7877 131.381 68.6085V74.3542C131.381 74.4982 131.309 74.6278 131.165 74.743C131.021 74.8582 130.856 74.9158 130.669 74.9158C130.467 74.9158 130.301 74.8582 130.172 74.743C130.042 74.6278 129.977 74.4982 129.977 74.3542ZM140.045 73.5118C140.045 73.3678 140.096 73.2238 140.196 73.0798C140.297 72.9358 140.412 72.8638 140.542 72.8638C140.643 72.8638 140.801 72.9502 141.017 73.123C141.233 73.2814 141.543 73.447 141.946 73.6198C142.349 73.7926 142.832 73.879 143.393 73.879C144.156 73.879 144.718 73.735 145.078 73.447C145.438 73.159 145.618 72.7918 145.618 72.3454C145.618 71.8269 145.431 71.4165 145.057 71.1141C144.697 70.7973 144.257 70.5669 143.739 70.4229C143.22 70.2789 142.695 70.1205 142.162 69.9477C141.644 69.7749 141.197 69.4941 140.823 69.1053C140.463 68.7021 140.283 68.1693 140.283 67.5068C140.283 66.7148 140.564 66.0308 141.125 65.4548C141.701 64.8644 142.558 64.5692 143.696 64.5692C144.401 64.5692 145.057 64.6844 145.661 64.9148C146.281 65.1308 146.59 65.3684 146.59 65.6276C146.59 65.7716 146.533 65.93 146.417 66.1028C146.302 66.2756 146.165 66.362 146.007 66.362C145.964 66.362 145.697 66.2612 145.208 66.0596C144.718 65.858 144.221 65.7572 143.717 65.7572C142.997 65.7572 142.457 65.93 142.097 66.2756C141.737 66.6212 141.557 67.01 141.557 67.442C141.557 67.8885 141.737 68.2413 142.097 68.5005C142.472 68.7597 142.918 68.9613 143.436 69.1053C143.969 69.2349 144.495 69.3933 145.013 69.5805C145.546 69.7533 145.993 70.0701 146.353 70.5309C146.727 70.9773 146.914 71.5605 146.914 72.2806C146.914 73.1446 146.605 73.8286 145.985 74.3326C145.381 74.8222 144.531 75.067 143.436 75.067C142.486 75.067 141.68 74.9014 141.017 74.5702C140.369 74.2246 140.045 73.8718 140.045 73.5118Z" fill="black"/>
<path d="M64.2383 25.5937C63.8652 24.6644 63.1567 23.8575 62.2128 23.2865C61.2688 22.7155 60.1368 22.4092 58.9761 22.4106H54.5189V11.2578L52.6457 11.484C48.3965 11.9972 45.0865 13.8178 42.8088 16.8953C41.1666 19.1137 40.4032 21.5608 40.049 23.3911C37.603 24.9822 35.4752 27.173 33.7167 29.9124C32.2347 32.2207 31.0079 34.9261 30.0702 37.9538C28.4859 43.0693 28.2714 47.3126 28.2631 47.4907L28.2623 52.4016H31.5439V47.5768C31.5849 46.8631 32.6184 31.2433 42.5218 25.2955L43.1024 24.9468L43.1978 24.3501C43.6916 21.2607 45.3983 16.1579 51.2367 14.5894V25.1856H58.9761C59.4507 25.1844 59.9137 25.309 60.3001 25.542C60.6865 25.7749 60.9767 26.1044 61.13 26.4841C62.4385 29.7496 64.6868 33.8359 68.1906 35.7562L67.1369 39.0973C66.7701 40.2889 65.9357 41.3398 64.7704 42.0782C63.6052 42.8166 62.1779 43.1987 60.7223 43.1619C57.7819 43.0873 54.7216 43.4116 51.6258 44.1254L50.4162 44.4042V52.4016H53.6983V46.5452C55.9664 46.0922 58.2939 45.8873 60.6237 45.9356C62.8177 45.9867 64.9679 45.4098 66.7257 44.2984C68.4834 43.187 69.7457 41.6062 70.3078 39.8123L72.0605 34.2553L70.7552 33.7823C68.3141 32.8978 65.9998 29.9897 64.2383 25.5937Z" fill="#FF7E06"/>
<path d="M81.8503 12.8068L87.7941 3.02415C88.2347 2.30061 88.8202 1.7071 89.5022 1.29281C90.1842 0.878525 90.943 0.655378 91.7158 0.641867L102.996 0.457489H103.019C108.842 0.457489 113.311 1.56733 116.188 6.98378C118.868 12.0256 120.01 20.6141 120.01 35.7008V37.5446H116.313L118.693 51.3729H115.395L113.015 37.5446H111.919C109.276 37.5715 106.73 36.4128 104.831 34.3189C103.113 32.4467 101.875 29.8855 101.248 26.9122L101.243 26.8854L98.467 11.7316H101.773L104.401 26.0772C105.201 29.8431 107.594 33.857 111.919 33.857H116.768C116.68 20.8047 115.637 13.0662 113.42 8.8929C111.559 5.38972 108.839 4.1462 103.03 4.14448L91.7624 4.32885C91.5048 4.33332 91.2518 4.40769 91.0245 4.54578C90.7971 4.68389 90.6019 4.88174 90.4551 5.12295L83.7315 16.1878L74.6997 17.903V19.8573L76.2059 29.0095C76.6504 31.7107 77.4103 33.0714 80.5264 33.4979L93.301 35.9881L93.3855 51.3729H90.149L90.0815 39.1011L80.099 37.1536C77.8375 36.8368 76.169 36.0064 74.9989 34.6157C73.9986 33.4267 73.3898 31.9077 73.0247 29.6891L71.4632 20.2V14.7792L81.8503 12.8068Z" fill="#0BF0FF"/>
</svg>
